HIERARCHY
ROOT Hips
{
    OFFSET 0.000000 0.000000 0.000000
    CHANNELS 6 Xposition Yposition Zposition Zrotation Xrotation Yrotation
    JOINT Spine
    {
        OFFSET -0.000000 8.079700 0.000000
        CHANNELS 3 Zrotation Xrotation Yrotation
        JOINT Spine1
        {
            OFFSET -0.000000 23.289207 0.000000
            CHANNELS 3 Zrotation Xrotation Yrotation
            JOINT Neck
            {
                OFFSET -0.000000 23.193563 2.108506
                CHANNELS 3 Zrotation Xrotation Yrotation
                JOINT Head
                {
                    OFFSET -0.000000 13.794610 -1.970658
                    CHANNELS 3 Zrotation Xrotation Yrotation
                    End Site
                    {
                        OFFSET -0.000000 24.633232 0.000000
                    }
                }
            }
            JOINT LeftShoulder
            {
                OFFSET 3.964071 21.437269 -0.109506
                CHANNELS 3 Zrotation Xrotation Yrotation
                JOINT LeftArm
                {
                    OFFSET 10.889085 0.000000 0.000000
                    CHANNELS 3 Zrotation Xrotation Yrotation
                    JOINT LeftForeArm
                    {
                        OFFSET 33.323662 0.000000 0.000000
                        CHANNELS 3 Zrotation Xrotation Yrotation
                        JOINT LeftHand
                        {
                            OFFSET 25.127829 0.000000 0.000000
                            CHANNELS 3 Zrotation Xrotation Yrotation
                            End Site
                            {
                                OFFSET 14.779941 0.000000 0.000000
                            }
                        }
                    }
                }
            }
            JOINT RightShoulder
            {
                OFFSET -3.907116 21.437269 -0.109506
                CHANNELS 3 Zrotation Xrotation Yrotation
                JOINT RightArm
                {
                    OFFSET -10.889085 0.000000 0.000000
                    CHANNELS 3 Zrotation Xrotation Yrotation
                    JOINT RightForeArm
                    {
                        OFFSET -33.323662 0.000000 0.000000
                        CHANNELS 3 Zrotation Xrotation Yrotation
                        JOINT RightHand
                        {
                            OFFSET -25.127829 0.000000 0.000000
                            CHANNELS 3 Zrotation Xrotation Yrotation
                            End Site
                            {
                                OFFSET -14.779941 0.000000 0.000000
                            }
                        }
                    }
                }
            }
        }
    }
    JOINT LeftUpLeg
    {
        OFFSET 9.853293 0.000000 0.000000
        CHANNELS 3 Zrotation Xrotation Yrotation
        JOINT LeftLeg
        {
            OFFSET -0.000000 -42.191887 0.000000
            CHANNELS 3 Zrotation Xrotation Yrotation
            JOINT LeftFoot
            {
                OFFSET -0.000000 -39.359688 0.000000
                CHANNELS 3 Zrotation Xrotation Yrotation
                JOINT LeftToeBase
                {
                    OFFSET -0.000000 -6.404640 14.779941
                    CHANNELS 3 Zrotation Xrotation Yrotation
                    End Site
                    {
                        OFFSET -0.000000 0.000000 3.941317
                    }
                }
            }
        }
    }
    JOINT RightUpLeg
    {
        OFFSET -9.853293 0.000000 0.000000
        CHANNELS 3 Zrotation Xrotation Yrotation
        JOINT RightLeg
        {
            OFFSET -0.000000 -42.191887 0.000000
            CHANNELS 3 Zrotation Xrotation Yrotation
            JOINT RightFoot
            {
                OFFSET -0.000000 -39.359688 0.000000
                CHANNELS 3 Zrotation Xrotation Yrotation
                JOINT RightToeBase
                {
                    OFFSET -0.000000 -6.404640 14.779941
                    CHANNELS 3 Zrotation Xrotation Yrotation
                    End Site
                    {
                        OFFSET -0.000000 0.000000 3.941317
                    }
                }
            }
        }
    }
}
MOTION
Frames:    5
Frame Time:    0.008333
2.991202    86.777840    -31.601364    2.649251    -1.125497    -88.498123    6.786129    12.704723    3.450083    1.741987    -0.182007    4.209223    -5.728531    22.627016    32.038879    -25.875420    -5.249895    28.576418    -1.933562    7.246716    12.565939    -53.063427    46.589283    -13.839990    3.498437    -13.964252    -32.791653    23.834536    -12.684010    1.351092    -6.862509    9.596074    11.258098    48.420868    34.166935    25.841793    -8.937402    -5.573079    16.704908    -37.450169    -9.091691    14.264750    2.381540    -23.238037    4.249238    -4.361152    38.019016    -5.000354    4.463175    -19.254374    12.766068    0.000000    0.000000    0.000000    -23.194029    -22.248697    -8.315787    11.208547    43.090397    -4.801040    -13.576097    -9.433724    -19.360147    0.000000    0.000000    0.000000    
3.005563    86.864265    -31.972731    2.730649    -1.106905    -87.972542    6.738408    12.663625    3.542588    1.902830    -0.154833    4.293759    -5.906736    22.497522    32.120506    -25.725353    -5.192165    28.699451    -2.042239    7.124223    12.593663    -53.264622    46.422188    -13.585813    3.337801    -13.709772    -32.748108    24.188936    -12.412266    1.634009    -7.090469    9.646944    11.193725    48.432709    34.205696    25.941105    -8.912129    -5.803193    16.686016    -37.385750    -9.231930    14.016482    2.516173    -23.209892    4.226854    -4.117478    37.633564    -5.403251    3.897754    -19.092310    12.587634    0.000000    0.000000    0.000000    -23.397972    -21.932816    -8.116076    11.479778    42.042034    -5.839046    -13.763833    -8.934632    -19.564787    0.000000    0.000000    0.000000    
3.044424    86.946411    -32.342510    2.842945    -1.083532    -87.424820    6.822572    12.616447    3.571277    1.879585    -0.172416    4.329237    -6.061727    22.486881    32.195934    -25.636049    -5.245574    28.774912    -2.110213    7.152764    12.741697    -53.048077    46.643337    -13.838037    3.286455    -13.949044    -32.458538    23.945175    -12.666905    1.696773    -7.204134    9.657331    11.275623    48.592514    34.004738    25.915651    -8.825483    -5.882345    16.495340    -37.402428    -9.352952    14.054132    2.646155    -23.248446    4.040375    -3.996861    37.261345    -5.629042    3.672885    -18.915749    12.467376    0.000000    0.000000    0.000000    -23.602638    -21.695562    -8.133344    11.622269    41.170212    -6.848152    -14.021034    -8.366492    -19.622437    0.000000    0.000000    0.000000    
3.060364    87.016640    -32.730770    2.898852    -1.108381    -86.979729    6.768856    12.590523    3.686218    1.950198    -0.161212    4.436565    -6.133824    22.490950    32.244854    -25.589071    -5.169786    28.847700    -2.200824    7.010415    12.711919    -53.141460    46.567600    -13.622619    3.074200    -13.726366    -32.267139    24.051172    -12.519389    1.638494    -7.259138    9.607201    11.275635    48.575611    34.107849    25.868704    -8.766654    -6.079618    16.380733    -37.291309    -9.508223    13.928194    2.805188    -23.174578    3.905545    -3.970737    36.833603    -5.631037    3.279713    -18.778059    12.209618    0.000000    0.000000    0.000000    -23.795364    -21.490665    -8.546978    11.376788    40.507786    -7.042063    -14.031892    -7.799124    -19.994392    0.000000    0.000000    0.000000    
3.095944    87.072952    -33.141434    2.991744    -1.066060    -86.469337    6.916522    12.624964    3.670465    1.778541    -0.321551    4.441527    -6.159182    22.609310    32.285671    -25.575783    -5.227556    28.871950    -2.139581    7.067712    12.809576    -53.138680    46.691521    -13.609161    3.005750    -13.851739    -32.107670    24.185141    -12.642293    1.757606    -7.081127    9.709411    11.445417    48.464169    34.012295    25.817402    -8.691783    -6.218780    16.290407    -37.186047    -9.605983    13.798495    3.003607    -23.257553    3.932779    -3.735250    36.589394    -5.947119    2.806873    -18.626789    11.952088    0.000000    0.000000    0.000000    -23.906033    -21.272921    -9.037565    11.160946    39.783260    -7.573426    -14.535946    -6.996952    -20.035786    0.000000    0.000000    0.000000    
